<?xml version="1.0" encoding="utf-8"?>
<!-- Svg Vector Icons : http://www.onlinewebfonts.com/icon -->
<!DOCTYPE svg PUBLIC "-//W3C//DTD SVG 1.1//EN" "http://www.w3.org/Graphics/SVG/1.1/DTD/svg11.dtd">
<svg version="1.1" xmlns="http://www.w3.org/2000/svg" xmlns:xlink="http://www.w3.org/1999/xlink" x="0px" y="0px" viewBox="0 0 1000 1000" enable-background="new 0 0 1000 1000" xml:space="preserve">
<metadata> Svg Vector Icons : http://www.onlinewebfonts.com/icon </metadata>
<g><path d="M990,335.9c0,80.6-41.8,162.6-125.3,246.1L524.1,910.2c-6.6,6.5-14.6,9.8-24.1,9.8c-9.5,0-17.5-3.3-24.1-9.8L134.7,581c-3.7-2.9-8.7-7.7-15-14.2c-6.4-6.6-16.5-18.5-30.4-35.8c-13.9-17.3-26.3-35.1-37.2-53.3s-20.7-40.3-29.3-66.2C14.2,385.5,10,360.4,10,335.9c0-80.2,23.1-142.9,69.5-188.1c46.3-45.2,110.3-67.8,192-67.8c22.6,0,45.7,3.9,69.2,11.7c23.5,7.9,45.4,18.4,65.6,31.7s37.6,25.8,52.2,37.4c14.5,11.7,28.4,24.1,41.5,37.2c13.1-13.1,26.9-25.5,41.5-37.2c14.6-11.7,32-24.2,52.3-37.4c20.3-13.3,42.2-23.9,65.6-31.7C682.9,83.9,706,80,728.6,80c81.7,0,145.6,22.6,192,67.8C966.9,193.1,990,255.8,990,335.9z M920,335.9c0-29.5-3.9-55.6-11.7-78.2c-7.9-22.6-17.9-40.6-30.1-53.8c-12.2-13.3-27.1-24.2-44.6-32.5c-17.6-8.3-34.6-14.1-51.4-16.9s-34.7-4.4-53.6-4.4s-39.4,4.7-61.2,13.9c-21.8,9.3-42,21-60.4,35c-18.4,14.1-34.2,27.2-47.3,39.4c-13.1,12.2-24.1,23.3-32.8,33.6c-6.6,8-15.5,12-26.8,12c-11.3,0-20.3-4-26.8-12c-8.7-10.2-19.6-21.4-32.8-33.7c-13.1-12.2-28.9-25.3-47.3-39.3c-18.4-14.1-38.5-25.7-60.4-35c-21.9-9.3-42.3-14-61.2-14c-19,0-36.9,1.5-53.6,4.4c-16.8,3-33.9,8.6-51.4,17c-17.5,8.4-32.3,19.2-44.6,32.5c-12.3,13.3-22.2,31.3-30.1,53.9C83.9,280.3,80,306.4,80,335.9c0,61.2,34.1,126,102.3,194.2L500,836.3l317.2-305.7C885.7,462.1,920,397.2,920,335.9z"/></g>
</svg>